<svg width="122" height="39" viewBox="0 0 122 39" fill="none" xmlns="http://www.w3.org/2000/svg">
<g filter="url(#filter0_d_218_76)">
<path d="M61 9.04V11.3H55.18V14.88H59.64V17.1H55.18V23H52.38V9.04H61ZM69.4655 23.14C68.1588 23.14 66.9588 22.8333 65.8655 22.22C64.7721 21.6067 63.9055 20.76 63.2655 19.68C62.6255 18.5867 62.3055 17.3533 62.3055 15.98C62.3055 14.62 62.6255 13.4 63.2655 12.32C63.9055 11.2267 64.7721 10.3733 65.8655 9.76C66.9588 9.14667 68.1588 8.84 69.4655 8.84C70.7855 8.84 71.9855 9.14667 73.0655 9.76C74.1588 10.3733 75.0188 11.2267 75.6455 12.32C76.2855 13.4 76.6055 14.62 76.6055 15.98C76.6055 17.3533 76.2855 18.5867 75.6455 19.68C75.0188 20.76 74.1588 21.6067 73.0655 22.22C71.9721 22.8333 70.7721 23.14 69.4655 23.14ZM69.4655 20.64C70.3055 20.64 71.0455 20.4533 71.6855 20.08C72.3255 19.6933 72.8255 19.1467 73.1855 18.44C73.5455 17.7333 73.7255 16.9133 73.7255 15.98C73.7255 15.0467 73.5455 14.2333 73.1855 13.54C72.8255 12.8333 72.3255 12.2933 71.6855 11.92C71.0455 11.5467 70.3055 11.36 69.4655 11.36C68.6255 11.36 67.8788 11.5467 67.2255 11.92C66.5855 12.2933 66.0855 12.8333 65.7255 13.54C65.3655 14.2333 65.1855 15.0467 65.1855 15.98C65.1855 16.9133 65.3655 17.7333 65.7255 18.44C66.0855 19.1467 66.5855 19.6933 67.2255 20.08C67.8788 20.4533 68.6255 20.64 69.4655 20.64ZM78.0086 16C78.0086 14.6267 78.3153 13.4 78.9286 12.32C79.5553 11.2267 80.4019 10.38 81.4686 9.78C82.5486 9.16667 83.7553 8.86 85.0886 8.86C86.6486 8.86 88.0153 9.26 89.1886 10.06C90.3619 10.86 91.1819 11.9667 91.6486 13.38H88.4286C88.1086 12.7133 87.6553 12.2133 87.0686 11.88C86.4953 11.5467 85.8286 11.38 85.0686 11.38C84.2553 11.38 83.5286 11.5733 82.8886 11.96C82.2619 12.3333 81.7686 12.8667 81.4086 13.56C81.0619 14.2533 80.8886 15.0667 80.8886 16C80.8886 16.92 81.0619 17.7333 81.4086 18.44C81.7686 19.1333 82.2619 19.6733 82.8886 20.06C83.5286 20.4333 84.2553 20.62 85.0686 20.62C85.8286 20.62 86.4953 20.4533 87.0686 20.12C87.6553 19.7733 88.1086 19.2667 88.4286 18.6H91.6486C91.1819 20.0267 90.3619 21.14 89.1886 21.94C88.0286 22.7267 86.6619 23.12 85.0886 23.12C83.7553 23.12 82.5486 22.82 81.4686 22.22C80.4019 21.6067 79.5553 20.76 78.9286 19.68C78.3153 18.6 78.0086 17.3733 78.0086 16ZM96.8002 9.04V17.68C96.8002 18.6267 97.0468 19.3533 97.5402 19.86C98.0335 20.3533 98.7268 20.6 99.6202 20.6C100.527 20.6 101.227 20.3533 101.72 19.86C102.213 19.3533 102.46 18.6267 102.46 17.68V9.04H105.28V17.66C105.28 18.8467 105.02 19.8533 104.5 20.68C103.993 21.4933 103.307 22.1067 102.44 22.52C101.587 22.9333 100.633 23.14 99.5802 23.14C98.5402 23.14 97.5935 22.9333 96.7402 22.52C95.9002 22.1067 95.2335 21.4933 94.7402 20.68C94.2468 19.8533 94.0002 18.8467 94.0002 17.66V9.04H96.8002ZM112.805 23.14C111.832 23.14 110.952 22.9733 110.165 22.64C109.392 22.3067 108.779 21.8267 108.325 21.2C107.872 20.5733 107.639 19.8333 107.625 18.98H110.625C110.665 19.5533 110.865 20.0067 111.225 20.34C111.599 20.6733 112.105 20.84 112.745 20.84C113.399 20.84 113.912 20.6867 114.285 20.38C114.659 20.06 114.845 19.6467 114.845 19.14C114.845 18.7267 114.719 18.3867 114.465 18.12C114.212 17.8533 113.892 17.6467 113.505 17.5C113.132 17.34 112.612 17.1667 111.945 16.98C111.039 16.7133 110.299 16.4533 109.725 16.2C109.165 15.9333 108.679 15.54 108.265 15.02C107.865 14.4867 107.665 13.78 107.665 12.9C107.665 12.0733 107.872 11.3533 108.285 10.74C108.699 10.1267 109.279 9.66 110.025 9.34C110.772 9.00667 111.625 8.84 112.585 8.84C114.025 8.84 115.192 9.19333 116.085 9.9C116.992 10.5933 117.492 11.5667 117.585 12.82H114.505C114.479 12.34 114.272 11.9467 113.885 11.64C113.512 11.32 113.012 11.16 112.385 11.16C111.839 11.16 111.399 11.3 111.065 11.58C110.745 11.86 110.585 12.2667 110.585 12.8C110.585 13.1733 110.705 13.4867 110.945 13.74C111.199 13.98 111.505 14.18 111.865 14.34C112.239 14.4867 112.759 14.66 113.425 14.86C114.332 15.1267 115.072 15.3933 115.645 15.66C116.219 15.9267 116.712 16.3267 117.125 16.86C117.539 17.3933 117.745 18.0933 117.745 18.96C117.745 19.7067 117.552 20.4 117.165 21.04C116.779 21.68 116.212 22.1933 115.465 22.58C114.719 22.9533 113.832 23.14 112.805 23.14Z" fill="white"/>
</g>
<g filter="url(#filter1_d_218_76)">
<path d="M15.6907 29.3333C15.0374 27.2033 14.052 25.6146 12.734 24.5686C10.7574 23 7.61672 23.9753 6.45672 22.3566C5.29672 20.738 7.26938 17.762 7.96138 16.006C8.65405 14.25 5.30805 13.6293 5.69872 13.1306C5.95872 12.798 7.65005 11.8393 10.7714 10.2533C11.658 5.19596 14.9334 2.66663 20.5987 2.66663C29.096 2.66663 32.3334 9.87063 32.3334 14.4533C32.3334 19.0346 28.4134 23.9706 22.8294 25.0353C22.33 25.762 23.05 27.1953 24.9894 29.3333" stroke="white" stroke-width="3.11133" stroke-linecap="round" stroke-linejoin="round"/>
<path d="M16.0001 9.66662C15.5641 11.356 15.6934 12.5426 16.3887 13.226C17.0834 13.9086 18.2674 14.356 19.9407 14.566C19.5607 16.7453 20.0241 17.7673 21.3294 17.6326C22.6347 17.4986 23.4194 16.956 23.6827 16.006C25.7227 16.5793 26.8287 16.0993 27.0001 14.566C27.2567 12.266 26.0167 10.432 25.5081 10.432C25.0001 10.432 23.6827 10.37 23.6827 9.66662C23.6827 8.96329 22.1441 8.56662 20.7554 8.56662C19.3667 8.56662 20.2021 7.62996 18.2954 7.99996C17.0241 8.24662 16.2587 8.80196 16.0001 9.66662V9.66662Z" stroke="white" stroke-width="2.66667" stroke-linejoin="round"/>
<path d="M23.3334 17C22.6554 17.4207 21.7254 18.12 21.3334 18.6667C20.3541 20.0333 19.5601 20.8653 19.3868 21.7387" stroke="white" stroke-width="2.66667" stroke-linecap="round"/>
</g>
<defs>
<filter id="filter0_d_218_76" x="48.38" y="8.84003" width="73.3655" height="22.3" filterUnits="userSpaceOnUse" color-interpolation-filters="sRGB">
<feFlood flood-opacity="0" result="BackgroundImageFix"/>
<feColorMatrix in="SourceAlpha" type="matrix" values="0 0 0 0 0 0 0 0 0 0 0 0 0 0 0 0 0 0 127 0" result="hardAlpha"/>
<feOffset dy="4"/>
<feGaussianBlur stdDeviation="2"/>
<feComposite in2="hardAlpha" operator="out"/>
<feColorMatrix type="matrix" values="0 0 0 0 0 0 0 0 0 0 0 0 0 0 0 0 0 0 0.25 0"/>
<feBlend mode="normal" in2="BackgroundImageFix" result="effect1_dropShadow_218_76"/>
<feBlend mode="normal" in="SourceGraphic" in2="effect1_dropShadow_218_76" result="shape"/>
</filter>
<filter id="filter1_d_218_76" x="-1" y="0" width="40" height="40" filterUnits="userSpaceOnUse" color-interpolation-filters="sRGB">
<feFlood flood-opacity="0" result="BackgroundImageFix"/>
<feColorMatrix in="SourceAlpha" type="matrix" values="0 0 0 0 0 0 0 0 0 0 0 0 0 0 0 0 0 0 127 0" result="hardAlpha"/>
<feOffset dy="4"/>
<feGaussianBlur stdDeviation="2"/>
<feComposite in2="hardAlpha" operator="out"/>
<feColorMatrix type="matrix" values="0 0 0 0 0 0 0 0 0 0 0 0 0 0 0 0 0 0 0.25 0"/>
<feBlend mode="normal" in2="BackgroundImageFix" result="effect1_dropShadow_218_76"/>
<feBlend mode="normal" in="SourceGraphic" in2="effect1_dropShadow_218_76" result="shape"/>
</filter>
</defs>
</svg>
