<svg width="125" height="40" viewBox="0 0 125 40" fill="none" xmlns="http://www.w3.org/2000/svg">
<path d="M67 13.04V15.3H61.18V18.88H65.64V21.1H61.18V27H58.38V13.04H67ZM75.4655 27.14C74.1588 27.14 72.9588 26.8333 71.8655 26.22C70.7721 25.6067 69.9055 24.76 69.2655 23.68C68.6255 22.5867 68.3055 21.3533 68.3055 19.98C68.3055 18.62 68.6255 17.4 69.2655 16.32C69.9055 15.2267 70.7721 14.3733 71.8655 13.76C72.9588 13.1467 74.1588 12.84 75.4655 12.84C76.7855 12.84 77.9855 13.1467 79.0655 13.76C80.1588 14.3733 81.0188 15.2267 81.6455 16.32C82.2855 17.4 82.6055 18.62 82.6055 19.98C82.6055 21.3533 82.2855 22.5867 81.6455 23.68C81.0188 24.76 80.1588 25.6067 79.0655 26.22C77.9721 26.8333 76.7721 27.14 75.4655 27.14ZM75.4655 24.64C76.3055 24.64 77.0455 24.4533 77.6855 24.08C78.3255 23.6933 78.8255 23.1467 79.1855 22.44C79.5455 21.7333 79.7255 20.9133 79.7255 19.98C79.7255 19.0467 79.5455 18.2333 79.1855 17.54C78.8255 16.8333 78.3255 16.2933 77.6855 15.92C77.0455 15.5467 76.3055 15.36 75.4655 15.36C74.6255 15.36 73.8788 15.5467 73.2255 15.92C72.5855 16.2933 72.0855 16.8333 71.7255 17.54C71.3655 18.2333 71.1855 19.0467 71.1855 19.98C71.1855 20.9133 71.3655 21.7333 71.7255 22.44C72.0855 23.1467 72.5855 23.6933 73.2255 24.08C73.8788 24.4533 74.6255 24.64 75.4655 24.64ZM84.0086 20C84.0086 18.6267 84.3153 17.4 84.9286 16.32C85.5553 15.2267 86.4019 14.38 87.4686 13.78C88.5486 13.1667 89.7553 12.86 91.0886 12.86C92.6486 12.86 94.0153 13.26 95.1886 14.06C96.3619 14.86 97.1819 15.9667 97.6486 17.38H94.4286C94.1086 16.7133 93.6553 16.2133 93.0686 15.88C92.4953 15.5467 91.8286 15.38 91.0686 15.38C90.2553 15.38 89.5286 15.5733 88.8886 15.96C88.2619 16.3333 87.7686 16.8667 87.4086 17.56C87.0619 18.2533 86.8886 19.0667 86.8886 20C86.8886 20.92 87.0619 21.7333 87.4086 22.44C87.7686 23.1333 88.2619 23.6733 88.8886 24.06C89.5286 24.4333 90.2553 24.62 91.0686 24.62C91.8286 24.62 92.4953 24.4533 93.0686 24.12C93.6553 23.7733 94.1086 23.2667 94.4286 22.6H97.6486C97.1819 24.0267 96.3619 25.14 95.1886 25.94C94.0286 26.7267 92.6619 27.12 91.0886 27.12C89.7553 27.12 88.5486 26.82 87.4686 26.22C86.4019 25.6067 85.5553 24.76 84.9286 23.68C84.3153 22.6 84.0086 21.3733 84.0086 20ZM102.8 13.04V21.68C102.8 22.6267 103.047 23.3533 103.54 23.86C104.033 24.3533 104.727 24.6 105.62 24.6C106.527 24.6 107.227 24.3533 107.72 23.86C108.213 23.3533 108.46 22.6267 108.46 21.68V13.04H111.28V21.66C111.28 22.8467 111.02 23.8533 110.5 24.68C109.993 25.4933 109.307 26.1067 108.44 26.52C107.587 26.9333 106.633 27.14 105.58 27.14C104.54 27.14 103.593 26.9333 102.74 26.52C101.9 26.1067 101.233 25.4933 100.74 24.68C100.247 23.8533 100 22.8467 100 21.66V13.04H102.8ZM118.805 27.14C117.832 27.14 116.952 26.9733 116.165 26.64C115.392 26.3067 114.779 25.8267 114.325 25.2C113.872 24.5733 113.639 23.8333 113.625 22.98H116.625C116.665 23.5533 116.865 24.0067 117.225 24.34C117.599 24.6733 118.105 24.84 118.745 24.84C119.399 24.84 119.912 24.6867 120.285 24.38C120.659 24.06 120.845 23.6467 120.845 23.14C120.845 22.7267 120.719 22.3867 120.465 22.12C120.212 21.8533 119.892 21.6467 119.505 21.5C119.132 21.34 118.612 21.1667 117.945 20.98C117.039 20.7133 116.299 20.4533 115.725 20.2C115.165 19.9333 114.679 19.54 114.265 19.02C113.865 18.4867 113.665 17.78 113.665 16.9C113.665 16.0733 113.872 15.3533 114.285 14.74C114.699 14.1267 115.279 13.66 116.025 13.34C116.772 13.0067 117.625 12.84 118.585 12.84C120.025 12.84 121.192 13.1933 122.085 13.9C122.992 14.5933 123.492 15.5667 123.585 16.82H120.505C120.479 16.34 120.272 15.9467 119.885 15.64C119.512 15.32 119.012 15.16 118.385 15.16C117.839 15.16 117.399 15.3 117.065 15.58C116.745 15.86 116.585 16.2667 116.585 16.8C116.585 17.1733 116.705 17.4867 116.945 17.74C117.199 17.98 117.505 18.18 117.865 18.34C118.239 18.4867 118.759 18.66 119.425 18.86C120.332 19.1267 121.072 19.3933 121.645 19.66C122.219 19.9267 122.712 20.3267 123.125 20.86C123.539 21.3933 123.745 22.0933 123.745 22.96C123.745 23.7067 123.552 24.4 123.165 25.04C122.779 25.68 122.212 26.1933 121.465 26.58C120.719 26.9533 119.832 27.14 118.805 27.14Z" fill="white"/>
<path d="M15.8633 36.6666C15.0466 34.0041 13.815 32.0183 12.1675 30.7108C9.69664 28.75 5.7708 29.9691 4.3208 27.9458C2.8708 25.9225 5.33664 22.2025 6.20164 20.0075C7.06747 17.8125 2.88497 17.0366 3.3733 16.4133C3.6983 15.9975 5.81247 14.7991 9.71414 12.8166C10.8225 6.49498 14.9166 3.33331 21.9983 3.33331C32.62 3.33331 36.6666 12.3383 36.6666 18.0666C36.6666 23.7933 31.7666 29.9633 24.7866 31.2941C24.1625 32.2025 25.0625 33.9941 27.4866 36.6666" stroke="white" stroke-width="3.88917" stroke-linecap="round" stroke-linejoin="round"/>
<path d="M16.25 12.0833C15.705 14.195 15.8667 15.6783 16.7358 16.5325C17.6042 17.3858 19.0842 17.945 21.1758 18.2075C20.7008 20.9316 21.28 22.2091 22.9117 22.0408C24.5433 21.8733 25.5242 21.195 25.8533 20.0075C28.4033 20.7241 29.7858 20.1241 30 18.2075C30.3208 15.3325 28.7708 13.04 28.135 13.04C27.5 13.04 25.8533 12.9625 25.8533 12.0833C25.8533 11.2041 23.93 10.7083 22.1942 10.7083C20.4583 10.7083 21.5025 9.53748 19.1192 9.99998C17.53 10.3083 16.5733 11.0025 16.25 12.0833V12.0833Z" stroke="white" stroke-width="3.33333" stroke-linejoin="round"/>
<path d="M25.4167 21.25C24.5692 21.7758 23.4067 22.65 22.9167 23.3333C21.6926 25.0417 20.7001 26.0817 20.4834 27.1733" stroke="white" stroke-width="3.33333" stroke-linecap="round"/>
</svg>
