<svg width="83" height="24" viewBox="0 0 83 24" fill="none" xmlns="http://www.w3.org/2000/svg">
<path d="M3.12276 20.3232C2.8074 17.3942 3.00424 15.7527 3.12276 12.7305C3.22333 10.1659 3.17544 6.68706 4.87565 4.78201C6.28348 3.20457 9.52168 2.4043 11.6895 3.37412C14.3859 4.58041 14.8319 8.58299 15.0751 11.1188C15.3342 13.8215 14.8424 17.7584 17.1449 19.7366C19.0819 21.4008 24.1289 21.0285 25.8899 19.2675C28.3994 16.758 26.817 7.04199 27.1226 3.37411" stroke="url(#paint0_linear_215_68)" stroke-width="4.40259" stroke-linecap="round" stroke-linejoin="round"/>
<path d="M41.4143 6.87931C42.7959 6.87931 43.8542 7.12728 44.5893 7.62324C45.3244 8.11034 45.6919 8.87199 45.6919 9.90818C45.6919 10.5547 45.5414 11.0817 45.2403 11.489C44.948 11.8876 44.5229 12.202 43.9649 12.4322C44.1509 12.6625 44.3458 12.9282 44.5495 13.2293C44.7532 13.5216 44.9524 13.8316 45.1473 14.1592C45.351 14.4781 45.5458 14.8146 45.7318 15.1689C45.9178 15.5143 46.0905 15.8552 46.2499 16.1918H43.9251C43.7568 15.8907 43.5841 15.5851 43.407 15.2751C43.2387 14.9652 43.0616 14.664 42.8756 14.3718C42.6985 14.0795 42.5214 13.805 42.3442 13.5481C42.1671 13.2825 41.99 13.0433 41.8128 12.8308H40.7899V16.1918H38.7175V7.11843C39.1692 7.02986 39.6342 6.96787 40.1124 6.93244C40.5995 6.89702 41.0335 6.87931 41.4143 6.87931ZM41.5339 8.64615C41.3833 8.64615 41.246 8.65058 41.1221 8.65944C41.0069 8.66829 40.8962 8.67715 40.7899 8.686V11.1835H41.3745C42.1538 11.1835 42.7118 11.0861 43.0483 10.8912C43.3849 10.6964 43.5531 10.3643 43.5531 9.8949C43.5531 9.44322 43.3804 9.12439 43.035 8.93841C42.6985 8.74357 42.1981 8.64615 41.5339 8.64615ZM47.5782 16.1918V6.98558H53.7954V8.72586H49.6506V10.5326H53.3304V12.233H49.6506V14.4515H54.1009V16.1918H47.5782ZM58.5139 16.1918C58.1508 15.4213 57.7921 14.6198 57.4379 13.7873C57.0836 12.9548 56.7471 12.1311 56.4282 11.3163C56.1094 10.5016 55.8127 9.7222 55.5382 8.97826C55.2725 8.23433 55.0422 7.5701 54.8474 6.98558H57.1323C57.3094 7.51696 57.4999 8.09263 57.7035 8.71257C57.9161 9.32366 58.1287 9.93475 58.3412 10.5458C58.5626 11.1569 58.7752 11.7414 58.9789 12.2994C59.1826 12.8574 59.373 13.34 59.5501 13.7474C59.7184 13.34 59.9044 12.8574 60.1081 12.2994C60.3206 11.7414 60.5332 11.1569 60.7457 10.5458C60.9671 9.93475 61.1797 9.32366 61.3834 8.71257C61.5959 8.09263 61.7908 7.51696 61.9679 6.98558H64.1731C63.9694 7.5701 63.7347 8.23433 63.469 8.97826C63.2034 9.7222 62.9111 10.5016 62.5923 11.3163C62.2734 12.1311 61.9369 12.9548 61.5826 13.7873C61.2284 14.6198 60.8697 15.4213 60.5066 16.1918H58.5139ZM70.7979 16.1918C70.6119 15.8907 70.3905 15.5674 70.1336 15.222C69.8856 14.8677 69.6111 14.5179 69.31 14.1725C69.0177 13.8183 68.7122 13.4817 68.3934 13.1629C68.0745 12.8352 67.7557 12.5474 67.4369 12.2994V16.1918H65.3645V6.98558H67.4369V10.4661C67.9771 9.89933 68.5173 9.31038 69.0576 8.69929C69.6067 8.07934 70.1159 7.50811 70.5853 6.98558H73.0429C72.4141 7.72952 71.7809 8.44688 71.1433 9.13768C70.5145 9.82848 69.8502 10.5237 69.1506 11.2234C69.8856 11.8344 70.5942 12.5607 71.2761 13.402C71.9669 14.2434 72.6267 15.1733 73.2555 16.1918H70.7979ZM78.0458 16.3778C77.3993 16.3778 76.8414 16.2892 76.372 16.1121C75.9026 15.9261 75.5129 15.6737 75.2029 15.3548C74.9018 15.0272 74.676 14.6419 74.5254 14.1991C74.3837 13.7474 74.3129 13.2515 74.3129 12.7112V6.98558H76.3853V12.5385C76.3853 12.9105 76.4251 13.2293 76.5048 13.495C76.5934 13.7518 76.7085 13.9644 76.8502 14.1327C77.0008 14.2921 77.1779 14.4072 77.3816 14.4781C77.5941 14.5489 77.8244 14.5843 78.0724 14.5843C78.5772 14.5843 78.9846 14.4294 79.2946 14.1194C79.6134 13.8094 79.7728 13.2825 79.7728 12.5385V6.98558H81.8452V12.7112C81.8452 13.2515 81.7699 13.7474 81.6194 14.1991C81.4688 14.6508 81.2385 15.0404 80.9286 15.3681C80.6186 15.687 80.2245 15.9349 79.7462 16.1121C79.268 16.2892 78.7012 16.3778 78.0458 16.3778Z" fill="white"/>
<defs>
<linearGradient id="paint0_linear_215_68" x1="-2.06656" y1="11.7576" x2="32.4498" y2="11.7576" gradientUnits="userSpaceOnUse">
<stop stop-color="#BD00FF"/>
<stop offset="1" stop-color="#5369DD"/>
</linearGradient>
</defs>
</svg>
