<svg width="30" height="30" viewBox="0 0 30 30" fill="none" xmlns="http://www.w3.org/2000/svg">
<g clip-path="url(#clip0_212_43)">
<path d="M27.1418 13.1L24.3501 12.2667C24.1571 11.5928 23.8916 10.9417 23.5584 10.325L24.9251 7.76667C24.9764 7.6701 24.9952 7.55958 24.9786 7.45149C24.9621 7.3434 24.9112 7.24352 24.8334 7.16667L22.8418 5.16667C22.7649 5.0889 22.665 5.03797 22.5569 5.02146C22.4489 5.00495 22.3383 5.02372 22.2418 5.07501L19.7001 6.43334C19.0773 6.08389 18.4177 5.80441 17.7334 5.60001L16.9001 2.84167C16.8649 2.74002 16.7983 2.65217 16.7099 2.59077C16.6216 2.52938 16.516 2.4976 16.4084 2.50001H13.5918C13.4835 2.50051 13.3783 2.53553 13.2914 2.59998C13.2045 2.66443 13.1404 2.75494 13.1084 2.85834L12.2751 5.60834C11.5851 5.81165 10.9199 6.09115 10.2918 6.44167L7.79176 5.09167C7.6952 5.04039 7.58467 5.02161 7.47658 5.03813C7.3685 5.05464 7.26862 5.10556 7.19176 5.18334L5.16676 7.15834C5.08899 7.23519 5.03807 7.33507 5.02155 7.44316C5.00504 7.55124 5.02382 7.66177 5.0751 7.75834L6.4251 10.2583C6.07515 10.8838 5.79566 11.5462 5.59176 12.2333L2.83343 13.0667C2.73003 13.0986 2.63952 13.1627 2.57508 13.2496C2.51063 13.3366 2.4756 13.4418 2.4751 13.55V16.3667C2.4756 16.4749 2.51063 16.5801 2.57508 16.667C2.63952 16.754 2.73003 16.8181 2.83343 16.85L5.60843 17.6833C5.81455 18.359 6.09399 19.0101 6.44176 19.625L5.0751 22.2417C5.02382 22.3382 5.00504 22.4488 5.02155 22.5569C5.03807 22.6649 5.08899 22.7648 5.16676 22.8417L7.15843 24.8333C7.23528 24.9111 7.33516 24.962 7.44325 24.9786C7.55133 24.9951 7.66186 24.9763 7.75843 24.925L10.3334 23.55C10.9426 23.8787 11.5851 24.1413 12.2501 24.3333L13.0834 27.1417C13.1154 27.2451 13.1795 27.3356 13.2664 27.4C13.3533 27.4645 13.4586 27.4995 13.5668 27.5H16.3834C16.4916 27.4995 16.5969 27.4645 16.6838 27.4C16.7707 27.3356 16.8348 27.2451 16.8668 27.1417L17.7001 24.325C18.3594 24.132 18.9963 23.8694 19.6001 23.5417L22.1918 24.925C22.2883 24.9763 22.3989 24.9951 22.5069 24.9786C22.615 24.962 22.7149 24.9111 22.7918 24.8333L24.7834 22.8417C24.8612 22.7648 24.9121 22.6649 24.9286 22.5569C24.9452 22.4488 24.9264 22.3382 24.8751 22.2417L23.4918 19.6583C23.8229 19.0523 24.0883 18.4125 24.2834 17.75L27.0918 16.9167C27.1952 16.8847 27.2857 16.8206 27.3501 16.7337C27.4146 16.6468 27.4496 16.5416 27.4501 16.4333V13.5917C27.455 13.488 27.4281 13.3854 27.373 13.2975C27.3179 13.2096 27.2372 13.1407 27.1418 13.1V13.1ZM15.0001 19.5833C14.0936 19.5833 13.2075 19.3145 12.4537 18.8109C11.7 18.3073 11.1126 17.5915 10.7657 16.754C10.4187 15.9165 10.328 14.9949 10.5048 14.1058C10.6817 13.2168 11.1182 12.4001 11.7592 11.7591C12.4002 11.1181 13.2169 10.6816 14.1059 10.5047C14.995 10.3279 15.9166 10.4187 16.7541 10.7656C17.5916 11.1125 18.3074 11.6999 18.811 12.4536C19.3146 13.2074 19.5834 14.0935 19.5834 15C19.5834 16.2156 19.1005 17.3814 18.241 18.2409C17.3815 19.1005 16.2157 19.5833 15.0001 19.5833V19.5833Z" fill="white"/>
</g>
<defs>
<clipPath id="clip0_212_43">
<rect width="30" height="30" fill="white"/>
</clipPath>
</defs>
</svg>
