<svg width="30" height="30" viewBox="0 0 30 30" fill="none" xmlns="http://www.w3.org/2000/svg">
<path d="M24.425 6.35C23.1717 5.10553 21.6824 4.12393 20.0447 3.4628C18.4069 2.80167 16.6535 2.47433 14.8875 2.5C11.5723 2.49171 8.38957 3.80072 6.0395 6.13906C3.68944 8.47741 2.36453 11.6535 2.35624 14.9687C2.34795 18.284 3.65696 21.4667 5.99531 23.8167C8.33365 26.1668 11.5098 27.4917 14.825 27.5C15.5394 27.5121 16.2375 27.2867 16.8099 26.8591C17.3823 26.4315 17.7965 25.826 17.9875 25.1375C18.1092 24.6403 18.108 24.1209 17.9838 23.6244C17.8597 23.1278 17.6164 22.6689 17.275 22.2875C17.1961 22.1977 17.1446 22.0871 17.1266 21.9688C17.1086 21.8506 17.125 21.7297 17.1736 21.6205C17.2223 21.5113 17.3013 21.4183 17.4013 21.3526C17.5012 21.287 17.6179 21.2513 17.7375 21.25H19.8C21.7412 21.2591 23.6139 20.5334 25.0422 19.2188C26.4705 17.9041 27.3485 16.0978 27.5 14.1625C27.5465 12.7195 27.2977 11.2822 26.769 9.93882C26.2402 8.5954 25.4426 7.37416 24.425 6.35V6.35ZM8.54999 18.425C8.24308 18.6336 7.88118 18.7464 7.51011 18.7492C7.13904 18.752 6.77548 18.6446 6.46548 18.4406C6.15548 18.2367 5.91297 17.9453 5.76866 17.6034C5.62434 17.2616 5.58472 16.8846 5.65479 16.5202C5.72487 16.1557 5.9015 15.8203 6.16232 15.5564C6.42314 15.2924 6.75642 15.1118 7.11996 15.0373C7.4835 14.9629 7.86095 14.998 8.20452 15.1382C8.54809 15.2785 8.84233 15.5175 9.04999 15.825C9.18914 16.0281 9.28663 16.2568 9.33683 16.4979C9.38703 16.7389 9.38893 16.9875 9.34243 17.2293C9.29594 17.4711 9.20196 17.7013 9.06594 17.9065C8.92992 18.1117 8.75455 18.288 8.54999 18.425V18.425ZM10.375 11.5625C10.1971 11.8919 9.92476 12.1605 9.59292 12.3338C9.26108 12.507 8.88497 12.577 8.51303 12.5346C8.14109 12.4923 7.79033 12.3396 7.50593 12.0962C7.22153 11.8528 7.0165 11.5298 6.91724 11.1688C6.81798 10.8079 6.82903 10.4255 6.94898 10.0709C7.06892 9.71629 7.29227 9.4057 7.59026 9.17912C7.88825 8.95255 8.24724 8.82036 8.62101 8.79957C8.99478 8.77879 9.36621 8.87036 9.68749 9.0625C10.102 9.31042 10.4049 9.70877 10.533 10.1745C10.6611 10.6403 10.6045 11.1375 10.375 11.5625V11.5625ZM13.75 8.75C13.3792 8.75 13.0166 8.64003 12.7083 8.434C12.4 8.22797 12.1596 7.93514 12.0177 7.59253C11.8758 7.24992 11.8387 6.87292 11.911 6.5092C11.9834 6.14549 12.1619 5.81139 12.4242 5.54917C12.6864 5.28695 13.0205 5.10837 13.3842 5.03602C13.7479 4.96368 14.1249 5.00081 14.4675 5.14272C14.8101 5.28464 15.103 5.52496 15.309 5.8333C15.515 6.14164 15.625 6.50416 15.625 6.875C15.625 7.37228 15.4274 7.84919 15.0758 8.20082C14.7242 8.55245 14.2473 8.75 13.75 8.75V8.75ZM20.9375 9.75C20.6162 9.94213 20.2448 10.0337 19.871 10.0129C19.4972 9.99214 19.1383 9.85994 18.8403 9.63337C18.5423 9.40679 18.3189 9.09621 18.199 8.7416C18.079 8.38699 18.068 8.00459 18.1672 7.64365C18.2665 7.2827 18.4715 6.95973 18.7559 6.71631C19.0403 6.4729 19.3911 6.32019 19.763 6.27785C20.135 6.2355 20.5111 6.30546 20.8429 6.47872C21.1748 6.65198 21.4471 6.9206 21.625 7.25C21.8545 7.67503 21.9111 8.17224 21.783 8.63798C21.6549 9.10373 21.352 9.50207 20.9375 9.75V9.75Z" fill="white"/>
</svg>
