<svg width="190" height="190" viewBox="0 0 190 190" fill="none" xmlns="http://www.w3.org/2000/svg">
<path d="M73.6514 179.333C69.5027 165.808 63.2459 155.72 54.8766 149.078C42.3247 139.117 22.3815 145.31 15.0155 135.031C7.64952 124.753 20.1759 105.855 24.5701 94.7047C28.9686 83.5541 7.72149 79.6129 10.2022 76.4464C11.8532 74.3339 22.5932 68.2464 42.4136 58.1753C48.044 26.0613 68.8423 10 104.817 10C158.775 10 179.332 55.7454 179.332 84.8453C179.332 113.937 154.44 145.28 118.982 152.041C115.811 156.655 120.383 165.757 132.698 179.333" stroke="white" stroke-width="19.757" stroke-linecap="round" stroke-linejoin="round"/>
<path d="M75.6168 54.45C72.8482 65.1773 73.6695 72.7126 78.0848 77.0518C82.496 81.3867 90.0144 84.2273 100.64 85.5608C98.227 99.3995 101.169 105.889 109.458 105.034C117.747 104.183 122.73 100.737 124.402 94.7048C137.356 98.3454 144.379 95.2974 145.467 85.5608C147.097 70.9558 139.223 59.3099 135.993 59.3099C132.767 59.3099 124.402 58.9162 124.402 54.45C124.402 49.9839 114.631 47.465 105.813 47.465C96.9951 47.465 102.299 41.5172 90.1922 43.8667C82.1192 45.433 77.2593 48.9594 75.6168 54.45V54.45Z" stroke="white" stroke-width="16.9333" stroke-linejoin="round"/>
<path d="M122.183 101.016C117.878 103.688 111.972 108.128 109.483 111.6C103.264 120.278 98.2222 125.561 97.1216 131.107" stroke="white" stroke-width="16.9333" stroke-linecap="round"/>
</svg>
